<?xml version="1.0" encoding="UTF-8" standalone="no"?>
<!-- Created with Inkscape (http://www.inkscape.org/) -->

<svg
   version="1.1"
   id="svg2"
   width="760"
   height="210"
   viewBox="0 0 759.99999 210"
   sodipodi:docname="logo.svg"
   inkscape:version="1.2.2 (b0a8486541, 2022-12-01)"
   xmlns:inkscape="http://www.inkscape.org/namespaces/inkscape"
   xmlns:sodipodi="http://sodipodi.sourceforge.net/DTD/sodipodi-0.dtd"
   xmlns="http://www.w3.org/2000/svg"
   xmlns:svg="http://www.w3.org/2000/svg">
  <defs
     id="defs6">
    <rect
       x="784.19202"
       y="96.345741"
       width="343.96014"
       height="17.48868"
       id="rect353" />
    <rect
       x="665.11926"
       y="70.151154"
       width="245.13757"
       height="110.27575"
       id="rect347" />
    <rect
       x="638.27271"
       y="204.70551"
       width="182.82687"
       height="83.87619"
       id="rect341" />
  </defs>
  <sodipodi:namedview
     id="namedview4"
     pagecolor="#505050"
     bordercolor="#eeeeee"
     borderopacity="1"
     inkscape:showpageshadow="0"
     inkscape:pageopacity="0"
     inkscape:pagecheckerboard="0"
     inkscape:deskcolor="#505050"
     showgrid="false"
     inkscape:zoom="1.372093"
     inkscape:cx="253.26272"
     inkscape:cy="145.39831"
     inkscape:window-width="3774"
     inkscape:window-height="2091"
     inkscape:window-x="0"
     inkscape:window-y="0"
     inkscape:window-maximized="1"
     inkscape:current-layer="g8" />
  <g
     id="g8"
     inkscape:groupmode="layer"
     inkscape:label="ink_ext_XXXXXX"
     transform="matrix(1.3333333,0,0,-1.3333333,0,172)">
    <g
       id="g10"
       transform="scale(0.1)"
       style="fill:#666666">
      <path
         id="path12"
         style="fill:#666666;fill-opacity:1;fill-rule:evenodd;stroke:none"
         d="M 3564.17,914.37014 V 7.0751955 h 204.5215 V 319.58497 h 97.3975 c 109.7099,0 197.177,28.28165 262.8369,84.43359 65.6499,56.37195 98.4814,130.02521 98.4814,221.16212 0,192.86281 -114.2541,289.18946 -342.9638,289.18946 z m 204.5215,-156.79688 h 80.332 c 108.8499,0 163.2715,-46.65427 163.2715,-139.95117 0,-95.24591 -54.4216,-142.98341 -163.2715,-142.98341 h -80.332 z" />
      <path
         id="path14"
         style="fill:#666666;fill-opacity:1;fill-rule:evenodd;stroke:none"
         d="m 3079.7608,686.52834 c -109.0599,0 -195.8745,-30.23419 -260.0244,-90.70313 -64.1399,-60.47194 -96.1084,-144.48468 -96.1084,-251.60157 0,-103.66789 30.8814,-185.95373 92.6514,-246.430669 61.7699,-60.468739 146.6539,-90.7031271 254.6338,-90.7031271 109.7099,0 196.1002,31.1011901 259.1601,93.5156261 63.07,62.41794 94.585,147.50771 94.585,255.0586 0,99.5589 -30.6525,179.6892 -91.7725,240.16114 -61.1199,60.46894 -145.5651,90.70313 -253.125,90.70313 z m -3.6767,-153.12012 c 96.5399,0 144.917,-60.46511 144.917,-181.62598 0,-127.63988 -47.9434,-191.57228 -143.6133,-191.57228 -100.4299,0 -150.7471,62.18893 -150.7471,186.59181 0,59.38994 13.1864,105.40361 39.3164,138.01758 26.13,32.39397 62.827,48.58887 110.127,48.58887 z" />
      <path
         d="M 2613.9,53.9805 C 2550.07,23.1055 2466.43,7.66797 2363.38,7.66797 c -134.33,0 -240.09,39.42583 -317.06,118.48403 -77.18,79.055 -115.55,184.395 -115.55,316.016 0,140.172 43.18,253.855 129.74,341.047 86.57,87.191 198.99,130.785 337.08,130.785 85.52,0 157.7,-10.844 216.31,-32.535 V 691.434 c -58.61,35.046 -125.36,52.562 -200.45,52.562 -82.19,0 -148.73,-25.863 -199.21,-77.594 -50.48,-51.73 -75.72,-121.816 -75.72,-210.261 0,-84.688 23.78,-152.27 71.55,-202.539 47.56,-50.274 111.8,-75.512 192.53,-75.512 76.97,0 147.47,18.773 211.3,56.316 V 53.9805"
         style="fill:#666666;fill-opacity:1;fill-rule:evenodd;stroke:none"
         id="path20" />
      <path
         d="M 1818.05,7.07031 H 1273.81 V 914.363 h 523.3 v -166.3 h -318.78 v -201.93 h 296.74 V 380.48 H 1478.33 V 172.938 h 339.72 V 7.07031"
         style="fill:#666666;fill-opacity:1;fill-rule:evenodd;stroke:none"
         id="path22" />
      <path
         d="m 5.29688,11.3164 c 226.34812,0 451.86712,0.0391 678.21112,0.0391 184.555,0 262.945,29.7929 343.042,107.4685 53.5,51.887 115.33,141.297 114.73,274.379 -1.48,324.66 -296.534,288.137 -291.358,473.774 1.164,41.996 27.258,82.187 64.125,102.675 35.019,19.45 70.254,29.016 127.893,29.164 235.71,0.579 -0.78,0 244.49,0.379 l 3207.09,-0.011 161.75,278.356 -3499.6,0.01 C 998.613,1273.74 831.242,1286.11 704.672,1169.31 603.332,1075.8 568.473,968.301 568.066,871.086 567.637,767.996 599.586,698.063 636.594,644.746 724.48,518.102 867.73,493.148 866.523,397.719 865.223,295.273 766.898,283.129 604.781,283.93 458.027,284.652 310.82,283.441 164.027,283.965 L 5.29688,11.3164"
         style="fill:#666666;fill-opacity:1;fill-rule:evenodd;stroke:none"
         id="path24" />
      <path
         d="m 5.29688,11.3164 c 226.34812,0 451.86712,0.0391 678.21112,0.0391 184.555,0 262.945,29.7929 343.042,107.4685 53.5,51.887 115.33,141.297 114.73,274.379 -1.48,324.66 -296.534,288.137 -291.358,473.774 1.164,41.996 27.258,82.187 64.125,102.675 35.019,19.45 70.254,29.016 127.893,29.164 235.71,0.579 -0.78,0 244.49,0.379 l 3207.09,-0.011 161.75,278.356 -3499.6,0.01 C 998.613,1273.74 831.242,1286.11 704.672,1169.31 603.332,1075.8 568.473,968.301 568.066,871.086 567.637,767.996 599.586,698.063 636.594,644.746 724.48,518.102 867.73,493.148 866.523,397.719 865.223,295.273 766.898,283.129 604.781,283.93 458.027,284.652 310.82,283.441 164.027,283.965 Z"
         style="fill:#666666;stroke:#231f20;stroke-width:4.9975;stroke-linecap:butt;stroke-linejoin:miter;stroke-miterlimit:22.9256;stroke-dasharray:none;stroke-opacity:1"
         id="path26" />
      <text
         xml:space="preserve"
         transform="matrix(7.5000002,0,0,-7.5000002,0,1290)"
         id="text339"
         style="white-space:pre;shape-inside:url(#rect341);fill:#666666" />
      <text
         xml:space="preserve"
         transform="matrix(7.5000002,0,0,-7.5000002,-999.37854,927.61451)"
         id="text345"
         style="font-size:74.6667px;white-space:pre;shape-inside:url(#rect347);fill:#666666"><tspan
           x="665.11914"
           y="138.08777"
           id="tspan809"><tspan
             style="font-weight:bold;font-family:monospace;-inkscape-font-specification:'monospace Bold'"
             id="tspan807">ophyd</tspan></tspan></text>
      <text
         xml:space="preserve"
         transform="matrix(7.5000002,0,0,-7.5000002,0,1290)"
         id="text351"
         style="white-space:pre;shape-inside:url(#rect353);fill:#666666" />
    </g>
  </g>
</svg>
